<svg width="67.733mm" height="67.733mm" version="1.1" viewBox="0 0 67.733 67.733" xmlns="http://www.w3.org/2000/svg">
	<g transform="translate(-58.454 -88.307)" display="none">
		<g transform="matrix(-1 0 0 1 184.64 0)" fill="#f00" fill-opacity=".58367">
			<path d="m119.87 112.16c-2.4969 0.34852-4.9769 0.81812-7.4283 1.4069-2.0224 0.48577-4.0294 1.0542-5.9631 1.8204-4.5218 1.7917-8.5408 4.6214-12.638 7.2418-5.2747 3.3732-10.351 6.2252-15.926 8.9255-0.22373-0.4527-0.45876-0.89994-0.71051-1.3378-0.24303-0.42309-0.50025-0.84094-0.68199-1.2938-0.18173-0.45283-0.2862-0.94931-0.20854-1.431 0.05827-0.36143 0.2195-0.70558 0.46-0.9816 0.2405-0.27604 0.55957-0.48304 0.90963-0.59023-0.79532-0.13606-1.6312-0.023-2.362 0.31899-0.82369 0.38547-1.5081 1.0618-1.9026 1.8811l1.3318 0.30026c0.04693 0.69929 0.18299 1.3925 0.4039 2.0577 0.2301 0.69277 0.55463 1.3535 0.95762 1.9621-0.27903 0.14749-0.50948 0.47344-0.61406 0.82502-0.12854-0.23389-0.37831-0.31362-0.66059-0.168-0.28209 0.14553-0.51582 0.47447-0.62141 0.8288-0.12842-0.23364-0.37872-0.31282-0.66082-0.16729-0.28228 0.14563-0.5157 0.47465-0.62118 0.82926-0.12854-0.23389-0.37832-0.31361-0.66059-0.168-0.28209 0.14554-0.51583 0.47447-0.62141 0.82881-0.12841-0.23364-0.37872-0.31282-0.66082-0.16729-0.28228 0.14562-0.5157 0.47464-0.62118 0.82925-0.12854-0.23389-0.37832-0.31361-0.66059-0.16799-0.2821 0.14553-0.51583 0.47446-0.62141 0.8288-0.12841-0.23364-0.37872-0.31282-0.66082-0.16729-0.28228 0.14562-0.5157 0.47464-0.62117 0.82926-0.12854-0.2339-0.37832-0.31362-0.66059-0.16799-0.28209 0.14552-0.51583 0.47446-0.62141 0.8288-0.12841-0.23365-0.37871-0.31283-0.66082-0.1673-0.28227 0.14562-0.51569 0.47464-0.62118 0.82926-0.12854-0.23389-0.37831-0.31362-0.66059-0.16799-0.29895 0.15422-0.54574 0.51338-0.64072 0.89168-0.06051-0.14612-0.13929-0.26906-0.25443-0.34439-0.23259-0.15217-0.61354-0.11232-0.99451-0.0725-0.38097 0.0398-0.7619 0.0797-0.94021 0.36527-0.17831 0.28556-0.15373 0.81726-0.12925 1.3488 0.02448 0.53158 0.04893 1.0632 0.2708 1.4931 0.2219 0.4299 0.64079 0.75801 1.0598 1.0861 0.419 0.32803 0.83775 0.65572 1.1739 0.67597 0.33611 0.0203 0.58951-0.2667 0.84283-0.55402 0.25333-0.28732 0.50653-0.57472 0.51734-0.85245 0.0053-0.13748-0.04896-0.27249-0.13295-0.40648 0.36332 0.14185 0.79906 0.1489 1.098-5e-3 0.28228-0.14563 0.36207-0.39537 0.24597-0.63569 0.35012 0.11957 0.75353 0.12005 1.0358-0.0256 0.2821-0.14554 0.36263-0.39541 0.24666-0.63546 0.34994 0.11933 0.75347 0.11949 1.0356-0.026 0.28227-0.14563 0.36207-0.39538 0.24597-0.63569 0.35011 0.11957 0.75352 0.12005 1.0358-0.0256 0.28209-0.14554 0.36264-0.39541 0.24666-0.63547 0.34995 0.11934 0.75346 0.1195 1.0356-0.026 0.28227-0.14563 0.36207-0.39538 0.24597-0.63569 0.35011 0.11957 0.75352 0.12005 1.0358-0.0256 0.28209-0.14554 0.36263-0.39541 0.24666-0.63547 0.34995 0.11933 0.75347 0.1195 1.0356-0.026 0.28227-0.14563 0.36207-0.39537 0.24597-0.63569 0.35011 0.11957 0.75352 0.12006 1.0358-0.0256 0.28209-0.14553 0.36264-0.3954 0.24666-0.63546 0.34996 0.11932 0.75347 0.11949 1.0356-0.026 0.28228-0.14563 0.36207-0.39537 0.24597-0.63569 0.34712 0.11855 0.74631 0.11967 1.0282-0.0223 0.26244 0.681 0.61263 1.3283 1.0437 1.9172 0.41399 0.56551 0.90006 1.0782 1.4427 1.5217l-0.52722 1.2594c0.8964 0.15335 1.8444-0.0119 2.6359-0.45974 0.70227-0.3973 1.2786-1.0134 1.6287-1.7404-0.29026 0.22311-0.64388 0.36315-1.0082 0.39918-0.36433 0.036-0.73823-0.0321-1.0665-0.19405-0.43757-0.21591-0.78136-0.58833-1.0451-0.99888-0.26368-0.41055-0.4551-0.86234-0.65903-1.3056-0.21096-0.45907-0.43922-0.90988-0.6786-1.3548 5.4315-2.9777 10.698-5.4611 16.504-7.8045 4.5103-1.8205 9.1454-3.456 13.226-6.1024 1.7452-1.1317 3.3715-2.4378 4.9395-3.8043 1.9006-1.6564 3.7206-3.4052 5.4518-5.238z"/>
			<path d="m88.475 98.126c-2.3267-1.4267-5.1895-1.9536-7.8716-1.4485-0.91882 0.17301-1.8029 0.46462-2.6749 0.79907l-0.95482-1.8508c-0.11226-0.2176-0.36-0.31719-0.58605-0.25006l-0.39472-0.76511c-0.09008-0.17461-0.30321-0.24305-0.47782-0.15297l-1.1261 0.58095c-0.17461 0.09008-0.24236 0.30343-0.15228 0.47804l0.39472 0.76511c-0.18572 0.14531-0.24815 0.40491-0.13589 0.62251l0.84915 1.6459c-1.0348 0.43984-2.0775 0.85742-3.1612 1.1413-2.5733 0.67401-5.3469 0.56249-7.8578-0.31598-0.31457 2.7655 0.3455 5.6323 1.8378 7.9817 1.7317 2.7264 4.579 4.72 7.7332 5.4147-0.75133-1.7802-0.57457-3.9234 0.45833-5.5564 0.896-1.4166 2.4127-2.4202 4.0617-2.7106l2.4224 4.6954c0.11226 0.21761 0.36 0.3172 0.58605 0.25007l20.239 39.23c0.09 0.17461 0.30321 0.24305 0.47781 0.15297l1.1261-0.58094c0.1746-0.0901 0.24235-0.30344 0.15227-0.47805l-20.239-39.23c0.18572-0.1453 0.24815-0.40491 0.13589-0.62251l-2.2008-4.266c-0.09745-0.48895-0.1071-0.99614 0.0023-1.4822 0.12402-0.55111 0.38991-1.0665 0.74575-1.5052 0.35584-0.43872 0.79723-0.8021 1.2672-1.1155 1.5616-1.0412 3.4705-1.5509 5.3433-1.4268z" stroke-width="0"/>
		</g>
		<g fill="#f00" fill-opacity=".58367">
			<path d="m119.87 112.16c-2.4969 0.34852-4.9769 0.81812-7.4283 1.4069-2.0224 0.48577-4.0294 1.0542-5.9631 1.8204-4.5218 1.7917-8.5408 4.6214-12.638 7.2418-5.2747 3.3732-10.351 6.2252-15.926 8.9255-0.22373-0.4527-0.45876-0.89994-0.71051-1.3378-0.24303-0.42309-0.50025-0.84094-0.68199-1.2938-0.18173-0.45283-0.2862-0.94931-0.20854-1.431 0.05827-0.36143 0.2195-0.70558 0.46-0.9816 0.2405-0.27604 0.55957-0.48304 0.90963-0.59023-0.79532-0.13606-1.6312-0.023-2.362 0.31899-0.82369 0.38547-1.5081 1.0618-1.9026 1.8811l1.3318 0.30026c0.04693 0.69929 0.18299 1.3925 0.4039 2.0577 0.2301 0.69277 0.55463 1.3535 0.95762 1.9621-0.27903 0.14749-0.50948 0.47344-0.61406 0.82502-0.12854-0.23389-0.37831-0.31362-0.66059-0.168-0.28209 0.14553-0.51582 0.47447-0.62141 0.8288-0.12842-0.23364-0.37872-0.31282-0.66082-0.16729-0.28228 0.14563-0.5157 0.47465-0.62118 0.82926-0.12854-0.23389-0.37832-0.31361-0.66059-0.168-0.28209 0.14554-0.51583 0.47447-0.62141 0.82881-0.12841-0.23364-0.37872-0.31282-0.66082-0.16729-0.28228 0.14562-0.5157 0.47464-0.62118 0.82925-0.12854-0.23389-0.37832-0.31361-0.66059-0.16799-0.2821 0.14553-0.51583 0.47446-0.62141 0.8288-0.12841-0.23364-0.37872-0.31282-0.66082-0.16729-0.28228 0.14562-0.5157 0.47464-0.62117 0.82926-0.12854-0.2339-0.37832-0.31362-0.66059-0.16799-0.28209 0.14552-0.51583 0.47446-0.62141 0.8288-0.12841-0.23365-0.37871-0.31283-0.66082-0.1673-0.28227 0.14562-0.51569 0.47464-0.62118 0.82926-0.12854-0.23389-0.37831-0.31362-0.66059-0.16799-0.29895 0.15422-0.54574 0.51338-0.64072 0.89168-0.06051-0.14612-0.13929-0.26906-0.25443-0.34439-0.23259-0.15217-0.61354-0.11232-0.99451-0.0725-0.38097 0.0398-0.7619 0.0797-0.94021 0.36527-0.17831 0.28556-0.15373 0.81726-0.12925 1.3488 0.02448 0.53158 0.04893 1.0632 0.2708 1.4931 0.2219 0.4299 0.64079 0.75801 1.0598 1.0861 0.419 0.32803 0.83775 0.65572 1.1739 0.67597 0.33611 0.0203 0.58951-0.2667 0.84283-0.55402 0.25333-0.28732 0.50653-0.57472 0.51734-0.85245 0.0053-0.13748-0.04896-0.27249-0.13295-0.40648 0.36332 0.14185 0.79906 0.1489 1.098-5e-3 0.28228-0.14563 0.36207-0.39537 0.24597-0.63569 0.35012 0.11957 0.75353 0.12005 1.0358-0.0256 0.2821-0.14554 0.36263-0.39541 0.24666-0.63546 0.34994 0.11933 0.75347 0.11949 1.0356-0.026 0.28227-0.14563 0.36207-0.39538 0.24597-0.63569 0.35011 0.11957 0.75352 0.12005 1.0358-0.0256 0.28209-0.14554 0.36264-0.39541 0.24666-0.63547 0.34995 0.11934 0.75346 0.1195 1.0356-0.026 0.28227-0.14563 0.36207-0.39538 0.24597-0.63569 0.35011 0.11957 0.75352 0.12005 1.0358-0.0256 0.28209-0.14554 0.36263-0.39541 0.24666-0.63547 0.34995 0.11933 0.75347 0.1195 1.0356-0.026 0.28227-0.14563 0.36207-0.39537 0.24597-0.63569 0.35011 0.11957 0.75352 0.12006 1.0358-0.0256 0.28209-0.14553 0.36264-0.3954 0.24666-0.63546 0.34996 0.11932 0.75347 0.11949 1.0356-0.026 0.28228-0.14563 0.36207-0.39537 0.24597-0.63569 0.34712 0.11855 0.74631 0.11967 1.0282-0.0223 0.26244 0.681 0.61263 1.3283 1.0437 1.9172 0.41399 0.56551 0.90006 1.0782 1.4427 1.5217l-0.52722 1.2594c0.8964 0.15335 1.8444-0.0119 2.6359-0.45974 0.70227-0.3973 1.2786-1.0134 1.6287-1.7404-0.29026 0.22311-0.64388 0.36315-1.0082 0.39918-0.36433 0.036-0.73823-0.0321-1.0665-0.19405-0.43757-0.21591-0.78136-0.58833-1.0451-0.99888-0.26368-0.41055-0.4551-0.86234-0.65903-1.3056-0.21096-0.45907-0.43922-0.90988-0.6786-1.3548 5.4315-2.9777 10.698-5.4611 16.504-7.8045 4.5103-1.8205 9.1454-3.456 13.226-6.1024 1.7452-1.1317 3.3715-2.4378 4.9395-3.8043 1.9006-1.6564 3.7206-3.4052 5.4518-5.238z"/>
			<path d="m88.475 98.126c-2.3267-1.4267-5.1895-1.9536-7.8716-1.4485-0.91882 0.17301-1.8029 0.46462-2.6749 0.79907l-0.95482-1.8508c-0.11226-0.2176-0.36-0.31719-0.58605-0.25006l-0.39472-0.76511c-0.09008-0.17461-0.30321-0.24305-0.47782-0.15297l-1.1261 0.58095c-0.17461 0.09008-0.24236 0.30343-0.15228 0.47804l0.39472 0.76511c-0.18572 0.14531-0.24815 0.40491-0.13589 0.62251l0.84915 1.6459c-1.0348 0.43984-2.0775 0.85742-3.1612 1.1413-2.5733 0.67401-5.3469 0.56249-7.8578-0.31598-0.31457 2.7655 0.3455 5.6323 1.8378 7.9817 1.7317 2.7264 4.579 4.72 7.7332 5.4147-0.75133-1.7802-0.57457-3.9234 0.45833-5.5564 0.896-1.4166 2.4127-2.4202 4.0617-2.7106l2.4224 4.6954c0.11226 0.21761 0.36 0.3172 0.58605 0.25007l20.239 39.23c0.09 0.17461 0.30321 0.24305 0.47781 0.15297l1.1261-0.58094c0.1746-0.0901 0.24235-0.30344 0.15227-0.47805l-20.239-39.23c0.18572-0.1453 0.24815-0.40491 0.13589-0.62251l-2.2008-4.266c-0.09745-0.48895-0.1071-0.99614 0.0023-1.4822 0.12402-0.55111 0.38991-1.0665 0.74575-1.5052 0.35584-0.43872 0.79723-0.8021 1.2672-1.1155 1.5616-1.0412 3.4705-1.5509 5.3433-1.4268z" stroke-width="0"/>
		</g>
		<path d="m92.301 90.812v0.17828l-1.7797 7.9308 1.0366 1.5224-0.44235 4.5501h0.38137v48.543h1.6485v-48.543h0.38137l-0.44235-4.5501 1.0366-1.5224-1.7797-7.9308v-0.17828l-0.02015 0.08992z"/>
	</g>
	<g transform="translate(-58.454 -88.307)">
		<g>
			<path transform="matrix(.26458 0 0 .26458 58.454 88.307)" d="m128 0a128 128 0 0 0-128 128 128 128 0 0 0 128 128 128 128 0 0 0 128-128 128 128 0 0 0-128-128z" fill="#d4d08d" fill-rule="evenodd"/>
			<g stroke-width="0">
				<path transform="matrix(.26458 0 0 .26458 58.454 88.307)" d="m23.893 90.145v0.001953c6.543 6.927 13.422 13.536 20.605 19.797 5.9264 5.165 12.074 10.102 18.67 14.379 12.491 8.1002 26.351 13.694 40.227 19.184 7.0445-3.9522 14.026-8.0682 21.055-12.422-0.72639-0.46053-1.4475-0.90537-2.1758-1.3711-15.487-9.904-30.677-20.599-47.768-27.371-7.3085-2.896-14.893-5.0429-22.537-6.8789-9.2652-2.2254-18.639-4.0011-28.076-5.3184zm161.72 51.797c-0.76203 0.01205-1.5219 0.08237-2.2734 0.21093 1.3231 0.40513 2.5285 1.1872 3.4375 2.2305 0.90898 1.0432 1.5179 2.343 1.7383 3.709 0.29356 1.8207-0.10029 3.6987-0.7871 5.4102-0.68693 1.7114-1.6596 3.2896-2.5781 4.8887-0.9515 1.6548-1.84 3.3456-2.6856 5.0566-10.421-5.0478-20.379-10.239-30.197-15.736-2.676 1.0565-5.3618 2.1117-8.0078 3.1797-3.9045 1.576-7.7271 3.1818-11.516 4.8047 14.553 6.4642 28.527 13.369 42.789 21.188-0.90478 1.6816-1.7672 3.386-2.5644 5.1211-0.77076 1.6753-1.4936 3.3819-2.4902 4.9336-0.99663 1.5517-2.2954 2.9594-3.9492 3.7754-1.2409 0.6121-2.6543 0.87044-4.0312 0.73438-1.377-0.13618-2.7135-0.66652-3.8106-1.5098 1.3231 2.7476 3.5 5.0765 6.1543 6.5781 2.9916 1.6926 6.5749 2.3179 9.9629 1.7383l-1.9922-4.7598c2.051-1.6763 3.8884-3.6146 5.4531-5.752 1.6293-2.2257 2.9534-4.6722 3.9453-7.2461 1.0654 0.53658 2.5728 0.53205 3.8848 0.08399-0.4388 0.90829-0.13719 1.8539 0.92969 2.4043 1.0662 0.54988 2.5914 0.54862 3.9141 0.09765-0.43831 0.90731-0.13257 1.8523 0.9336 2.4024 1.0669 0.55052 2.5908 0.54762 3.9141 0.0957-0.4388 0.90829-0.13716 1.8519 0.92969 2.4023 1.0662 0.54992 2.5914 0.54867 3.9141 0.09766-0.43831 0.90731-0.13453 1.8523 0.93164 2.4023 1.0669 0.55049 2.5928 0.54958 3.916 0.09766-0.43881 0.90826-0.13716 1.8519 0.92968 2.4023 1.0662 0.54992 2.5895 0.54871 3.9121 0.09766-0.43831 0.90731-0.13257 1.8523 0.9336 2.4023 1.0669 0.55049 2.5908 0.54762 3.9141 0.0957-0.4388 0.90826-0.13716 1.8539 0.92969 2.4043 1.0662 0.54989 2.5914 0.54867 3.9141 0.09766-0.43831 0.90727-0.13457 1.8523 0.93164 2.4023 1.0668 0.55049 2.5927 0.54762 3.916 0.0957-0.43881 0.9083-0.1372 1.8519 0.92968 2.4024 1.1298 0.58167 2.7753 0.55566 4.1484 0.01953-0.31729 0.50642-0.52085 1.0175-0.50195 1.5371 0.04085 1.0497 0.99761 2.1348 1.9551 3.2207 0.95747 1.0859 1.9152 2.1705 3.1856 2.0938 1.2704-0.07653 2.8538-1.3149 4.4375-2.5547 1.5836-1.2399 3.1672-2.4806 4.0059-4.1055s0.93084-3.6335 1.0234-5.6426c0.09252-2.0092 0.18565-4.0184-0.48828-5.0977-0.67389-1.0793-2.1148-1.2304-3.5547-1.3809-1.4399-0.1505-2.8787-0.30169-3.7578 0.27344-0.43518 0.28471-0.73423 0.75047-0.96289 1.3027-0.35898-1.4298-1.292-2.7882-2.4219-3.3711-1.0669-0.55041-2.0103-0.24923-2.4961 0.63477-0.3987-1.3403-1.2808-2.5824-2.3477-3.1328-1.0662-0.55003-2.0127-0.25222-2.498 0.63086-0.39904-1.3392-1.2815-2.5809-2.3476-3.1309-1.0668-0.55041-2.0103-0.24926-2.4961 0.63477-0.39867-1.3403-1.2827-2.5844-2.3496-3.1348-1.0662-0.55003-2.0108-0.25023-2.4961 0.63282-0.39904-1.3392-1.2834-2.5828-2.3496-3.1328-1.0668-0.55037-2.0103-0.24922-2.4961 0.63477-0.39867-1.3403-1.2808-2.5844-2.3477-3.1348-1.0662-0.55003-2.0127-0.25023-2.498 0.63282-0.39905-1.3392-1.2815-2.5827-2.3477-3.1328-1.0668-0.55033-2.0122-0.24922-2.498 0.63477-0.39866-1.3403-1.2808-2.5824-2.3476-3.1328-1.0662-0.55004-2.0127-0.25219-2.498 0.63086-0.39908-1.3392-1.2815-2.5828-2.3477-3.1328-1.0669-0.55037-2.0103-0.24727-2.4961 0.63672-0.39526-1.3288-1.2677-2.5617-2.3223-3.1191 1.5231-2.3005 2.7495-4.7977 3.6191-7.416 0.83494-2.5139 1.3501-5.1344 1.5274-7.7774l5.0332-1.1348c-1.4913-3.0968-4.0763-5.6525-7.1894-7.1094-2.0716-0.96942-4.3682-1.4522-6.6543-1.416z"/>
				<path transform="matrix(.26458 0 0 .26458 58.454 88.307)" d="m191.01 23.098c-0.5209-0.039943-1.0376 0.2277-1.293 0.72266l-1.4922 2.8926c-0.85436-0.25372-1.7906 0.12288-2.2148 0.94531l-3.6074 6.9941c-3.2954-1.2641-6.6386-2.3656-10.111-3.0195-10.137-1.9088-20.956 0.082245-29.75 5.4746 7.0783-0.46913 14.293 1.4573 20.195 5.3926 1.7764 1.1844 3.4461 2.5586 4.791 4.2168 1.3449 1.6582 2.3497 3.6065 2.8184 5.6895 0.41234 1.8372 0.37594 3.7536 0.00781 5.6016l-8.3184 16.123c-0.42429 0.82243-0.18826 1.8044 0.51367 2.3535l-23.291 45.143c4.1369-2.6908 8.2993-5.3692 12.531-7.998l17.396-33.721c0.8544 0.25372 1.7906-0.12285 2.2148-0.94531l9.1562-17.746c6.2325 1.0977 11.965 4.8903 15.352 10.244 3.9039 6.1719 4.5721 14.274 1.7324 21.002 11.921-2.626 22.681-10.162 29.227-20.467 5.6402-8.8797 8.1342-19.714 6.9453-30.166-9.4899 3.3202-19.971 3.7408-29.697 1.1934-4.096-1.0728-8.0362-2.6501-11.947-4.3125l3.209-6.2207c0.42432-0.82243 0.1883-1.8043-0.51367-2.3535l1.4922-2.8906c0.34046-0.65994 0.08377-1.4662-0.57617-1.8066l-4.2559-2.1973c-0.16498-0.085117-0.34004-0.13122-0.51367-0.14453zm-63.006 134.65c-3.2355 1.4208-6.4347 2.8679-9.6152 4.3359l-32.334 62.674c-0.34046 0.65994-0.083733 1.4661 0.57617 1.8066l4.2559 2.1973c0.65991 0.34046 1.4665 0.08182 1.8066-0.57812l36.145-70.064c-0.27893-0.12301-0.55457-0.2484-0.83398-0.37109z"/>
				<path d="m119.87 112.16c-2.4969 0.34852-4.9769 0.81812-7.4283 1.4069-2.0224 0.48577-4.0294 1.0542-5.9631 1.8204-4.5218 1.7917-8.5408 4.6214-12.638 7.2418-5.2747 3.3732-10.351 6.2252-15.926 8.9255-0.22373-0.4527-0.45876-0.89994-0.71051-1.3378-0.24303-0.42309-0.50025-0.84094-0.68199-1.2938-0.18173-0.45283-0.2862-0.94931-0.20854-1.431 0.05827-0.36143 0.2195-0.70558 0.46-0.9816 0.2405-0.27604 0.55957-0.48304 0.90963-0.59023-0.79532-0.13606-1.6312-0.023-2.362 0.31899-0.82369 0.38547-1.5081 1.0618-1.9026 1.8811l1.3318 0.30026c0.04693 0.69929 0.18299 1.3925 0.4039 2.0577 0.2301 0.69277 0.55463 1.3535 0.95762 1.9621-0.27903 0.14749-0.50948 0.47344-0.61406 0.82502-0.12854-0.23389-0.37831-0.31362-0.66059-0.168-0.28209 0.14553-0.51582 0.47447-0.62141 0.8288-0.12842-0.23364-0.37872-0.31282-0.66082-0.16729-0.28228 0.14563-0.5157 0.47465-0.62118 0.82926-0.12854-0.23389-0.37832-0.31361-0.66059-0.168-0.28209 0.14554-0.51583 0.47447-0.62141 0.82881-0.12841-0.23364-0.37872-0.31282-0.66082-0.16729-0.28228 0.14562-0.5157 0.47464-0.62118 0.82925-0.12854-0.23389-0.37832-0.31361-0.66059-0.16799-0.2821 0.14553-0.51583 0.47446-0.62141 0.8288-0.12841-0.23364-0.37872-0.31282-0.66082-0.16729-0.28228 0.14562-0.5157 0.47464-0.62117 0.82926-0.12854-0.2339-0.37832-0.31362-0.66059-0.16799-0.28209 0.14552-0.51583 0.47446-0.62141 0.8288-0.12841-0.23365-0.37871-0.31283-0.66082-0.1673-0.28227 0.14562-0.51569 0.47464-0.62118 0.82926-0.12854-0.23389-0.37831-0.31362-0.66059-0.16799-0.29895 0.15422-0.54574 0.51338-0.64072 0.89168-0.06051-0.14612-0.13929-0.26906-0.25443-0.34439-0.23259-0.15217-0.61354-0.11232-0.99451-0.0725-0.38097 0.0398-0.7619 0.0797-0.94021 0.36527-0.17831 0.28556-0.15373 0.81726-0.12925 1.3488 0.02448 0.53158 0.04893 1.0632 0.2708 1.4931 0.2219 0.4299 0.64079 0.75801 1.0598 1.0861 0.419 0.32803 0.83775 0.65572 1.1739 0.67597 0.33611 0.0203 0.58951-0.2667 0.84283-0.55402 0.25333-0.28732 0.50653-0.57472 0.51734-0.85245 0.0053-0.13748-0.04896-0.27249-0.13295-0.40648 0.36332 0.14185 0.79906 0.1489 1.098-5e-3 0.28228-0.14563 0.36207-0.39537 0.24597-0.63569 0.35012 0.11957 0.75353 0.12005 1.0358-0.0256 0.2821-0.14554 0.36263-0.39541 0.24666-0.63546 0.34994 0.11933 0.75347 0.11949 1.0356-0.026 0.28227-0.14563 0.36207-0.39538 0.24597-0.63569 0.35011 0.11957 0.75352 0.12005 1.0358-0.0256 0.28209-0.14554 0.36264-0.39541 0.24666-0.63547 0.34995 0.11934 0.75346 0.1195 1.0356-0.026 0.28227-0.14563 0.36207-0.39538 0.24597-0.63569 0.35011 0.11957 0.75352 0.12005 1.0358-0.0256 0.28209-0.14554 0.36263-0.39541 0.24666-0.63547 0.34995 0.11933 0.75347 0.1195 1.0356-0.026 0.28227-0.14563 0.36207-0.39537 0.24597-0.63569 0.35011 0.11957 0.75352 0.12006 1.0358-0.0256 0.28209-0.14553 0.36264-0.3954 0.24666-0.63546 0.34996 0.11932 0.75347 0.11949 1.0356-0.026 0.28228-0.14563 0.36207-0.39537 0.24597-0.63569 0.34712 0.11855 0.74631 0.11967 1.0282-0.0223 0.26244 0.681 0.61263 1.3283 1.0437 1.9172 0.41399 0.56551 0.90006 1.0782 1.4427 1.5217l-0.52722 1.2594c0.8964 0.15335 1.8444-0.0119 2.6359-0.45974 0.70227-0.3973 1.2786-1.0134 1.6287-1.7404-0.29026 0.22311-0.64388 0.36315-1.0082 0.39918-0.36433 0.036-0.73823-0.0321-1.0665-0.19405-0.43757-0.21591-0.78136-0.58833-1.0451-0.99888-0.26368-0.41055-0.4551-0.86234-0.65903-1.3056-0.21096-0.45907-0.43922-0.90988-0.6786-1.3548 5.4315-2.9777 10.698-5.4611 16.504-7.8045 4.5103-1.8205 9.1454-3.456 13.226-6.1024 1.7452-1.1317 3.3715-2.4378 4.9395-3.8043 1.9006-1.6564 3.7206-3.4052 5.4518-5.238z" style="font-variant-east_asian:normal"/>
				<path transform="matrix(.26458 0 0 .26458 58.454 88.307)" d="m64.994 23.098c-0.17364 0.013315-0.34869 0.059415-0.51367 0.14453l-4.2559 2.1973c-0.65993 0.34046-0.91663 1.1467-0.57617 1.8066l1.4922 2.8906c-0.70195 0.54919-0.93797 1.5311-0.51367 2.3535l3.209 6.2207c-3.911 1.6624-7.8513 3.2397-11.947 4.3125-9.7259 2.5474-20.209 2.1268-29.699-1.1934-1.1889 10.452 1.3071 21.286 6.9473 30.166 6.5451 10.304 17.305 17.841 29.227 20.467-2.8397-6.7282-2.1715-14.83 1.7324-21.002 3.3865-5.3539 9.1191-9.1465 15.352-10.244l9.1562 17.746c0.4243 0.82246 1.3605 1.199 2.2148 0.94531l17.398 33.723c4.2315 2.6281 8.3932 5.3061 12.529 7.9961l-23.291-45.143c0.70195-0.54916 0.93797-1.5311 0.51367-2.3535l-8.3184-16.123c-0.36832-1.848-0.40372-3.7644 0.009765-5.6016 0.46873-2.0829 1.4734-4.0313 2.8184-5.6895 1.3449-1.6582 3.0127-3.0324 4.7891-4.2168 5.9022-3.9352 13.117-5.8617 20.195-5.3926-8.7937-5.3924-19.613-7.3834-29.75-5.4746-3.4727 0.6539-6.8159 1.7555-10.111 3.0195l-3.6074-6.9941c-0.42429-0.82243-1.3605-1.199-2.2148-0.94531l-1.4922-2.8926c-0.25534-0.49495-0.77205-0.7626-1.293-0.72266zm67.299 136.56-2.168 4.2012 33.186 64.324c0.34015 0.65994 1.1467 0.91858 1.8066 0.57812l4.2559-2.1973c0.6599-0.34054 0.91663-1.1467 0.57617-1.8066l-32.318-62.643c-1.7776-0.82051-3.5447-1.6517-5.3379-2.457z"/>
				<path transform="matrix(.26458 0 0 .26458 58.454 88.307)" d="m127.92 9.4668v0.67383l-6.7266 29.975 3.918 5.752-1.6719 17.197h1.4414v63.826c1.0399 0.6596 2.0775 1.3079 3.1152 1.9609 1.0379-0.65316 2.0753-1.3013 3.1152-1.9609v-63.826h1.4414l-1.6719-17.197 3.918-5.752-6.7266-29.975v-0.67383l-0.07617 0.33984-0.07617-0.33984zm0.07617 158.51-3.1152 6.0391v72.518h3.1152 3.1152v-72.518l-3.1152-6.0391z"/>
			</g>
		</g>
	</g>
</svg>
