<?xml version="1.0" encoding="UTF-8" standalone="no"?>
<svg
	 xmlns="http://www.w3.org/2000/svg"
	 height="64"
	 width="32"
	 version="1.1"
	 viewBox="0 0 32 64"
	 >
	<g fill="white">
		<path d="m11.426 10c-0.17808 0.66938-0.39486 1.335-0.63086 2h14c0.236-0.66497 0.45278-1.3306 0.63086-2zm-1.4004 4c-0.27792 0.67115-0.56986 1.3372-0.86328 2h14c0.29342-0.66285 0.58536-1.3288 0.86328-2zm-1.7402 4c-0.29531 0.67352-0.56315 1.3394-0.82617 2h14c0.26303-0.66061 0.53086-1.3265 0.82617-2zm-1.5625 4c-0.215 0.676-0.3909 1.343-0.5143 2h14c0.12344-0.65688 0.29936-1.3243 0.51367-2zm-0.7233-22c-3.29 0-6 2.71-6 6 0 0.7006 0.12828 1.3725 0.35352 2h7.2774c-0.4096 2.403-1.2894 4.931-2.459 7.562-1.4926 3.359-3.1719 6.771-3.1719 10.438 0 3.29 2.71 6 6 6h18c3.29 0 6-2.71 6-6 0-0.70064-0.12828-1.3725-0.35352-2h-7.2246c0.44135-2.0128 1.2747-4.2665 2.4062-6.8125 1.509-3.392 3.173-7.117 3.173-11.188 0-3.29-2.71-6-6-6h-18zm0 3c1.315 0 2.4088 0.83288 2.8184 2h-5.4062c0.4369-1.1125 1.3118-2 2.5878-2zm3.8906 0h14.109c1.6687 0 3 1.3313 3 3 0 3.2143-1.4178 6.6021-2.9141 9.9688-1.347 3.03-2.758 6.031-3.029 9.031h-10.159c0.067 0.324 0.102 0.658 0.102 1 0 1.669-1.3313 3-3 3s-3-1.331-3-3c0-2.667 1.4103-5.835 2.9141-9.219 1.5037-3.383 3.0859-6.9953 3.0859-10.781 0-1.145-0.455-2.1546-1.1094-3zm2.9062 24h15.791c-0.437 1.113-1.312 2-2.588 2h-14.109c0.4518-0.584 0.74788-1.2544 0.90625-2z"/>
	</g>
	<g fill="#CCC" transform="translate(0, 32)">
		<path d="m11 13c-1.4715-0.239-2.5122 2.093-4 2-0.5008-0.031-1.252-0.836-1.252-0.836-0.188 0.465-0.3662 0.926-0.5761 1.398-1.4926 3.359-3.1719 6.771-3.1719 10.438 0 3.29 2.71 6 6 6h18c3.29 0 6-2.71 6-6 0-0.70064-0.12828-1.3725-0.35352-2h-7.2246c0.44135-2.0128 1.2747-4.2665 2.4062-6.8125 0.40909-0.92046 0.82343-1.8759 1.2188-2.8457 0 0-1.6206 1.2671-2.5469 1.1582-1.34-0.158-1.857-2.314-3.196-2.486-0.828-0.107-1.474 1.085-2.303 0.986-0.18-0.022-0.255-0.346-0.436-0.326-0.796 0.088-0.773 1.957-1.564 1.826-0.885-0.146-0.186-2.122-1-2.5-1.434-0.665-2.961 1.863-4.5 1.5-0.688-0.162-0.802-1.387-1.5-1.5zm-3 4c0.39854 0.03955 0.66602 1 0.66602 1h-0.38086c-0.29531 0.67352-0.56315 1.3394-0.82617 2h2.5411 5s0.53468 0.92449 1 1c0.73573 0.11939 2-1 2-1h2.5s0.14645 0.88215 0.5 1c0.43089 0.14363 1.2188-0.60938 1.2188-0.60938-0.578 1.539-1.024 3.075-1.162 4.609h-10.159c0.067 0.324 0.102 0.658 0.102 1 0 1.669-1.3313 3-3 3s-3-1.331-3-3c0-2.522 1.2689-5.501 2.6777-8.678 0 0 0.1711-0.337 0.3223-0.322zm-1.2773 5c-0.2144 0.676-0.3903 1.343-0.5137 2h14c0.12344-0.65688 0.29936-1.3243 0.51367-2zm6.0742 5h15.791c-0.437 1.113-1.312 2-2.588 2h-14.109c0.4518-0.584 0.74788-1.2544 0.90625-2z"/>
	</g>
</svg>
