<svg
   xmlns:svg="http://www.w3.org/2000/svg"
   xmlns="http://www.w3.org/2000/svg"
   width="100"
   height="100"
   viewBox="0 0 135.5 135.5"
   version="1.1">
<!--	  <circle cx="68" cy="68" r="67" fill="white"/>-->
  <g transform="translate(0,-161.53334)">
    <path
       fill="#fff"
       fill-rule="evenodd"
       d="m 82.250223,278.67559 a 5.9573926,10.3184 30.000004 0 0 10.31846,-5.95731 5.9573926,10.3184 30.000004 0 0 -6e-5,-11.9147 5.9573926,10.3184 30.000004 0 0 -10.31846,5.95731 5.9573926,10.3184 30.000004 0 0 6e-5,11.9147 z M 107.4631,235.00561 a 5.9573926,10.3184 30.000004 0 0 10.31846,-5.9573 5.9573926,10.3184 30.000004 0 0 -6e-5,-11.9147 5.9573926,10.3184 30.000004 0 0 -10.31848,5.9573 5.9573926,10.3184 30.000004 0 0 8e-5,11.9147 z m -12.606437,21.83498 a 5.9573926,10.3184 30.000004 0 0 10.318457,-5.95729 5.9573926,10.3184 30.000004 0 0 -6e-5,-11.9147 5.9573926,10.3184 30.000004 0 0 -10.318457,5.95729 5.9573926,10.3184 30.000004 0 0 6e-5,11.9147 z m -66.85165,-21.835 a 10.3184,5.9573926 59.999996 0 1 -10.318453,-5.95729 10.3184,5.9573926 59.999996 0 1 5.5e-5,-11.9147 10.3184,5.9573926 59.999996 0 1 10.318467,5.95729 10.3184,5.9573926 59.999996 0 1 -6.9e-5,11.9147 z m 25.21288,43.66998 a 10.3184,5.9573926 59.999996 0 1 -10.31846,-5.9573 10.3184,5.9573926 59.999996 0 1 5e-5,-11.9147 10.3184,5.9573926 59.999996 0 1 10.31847,5.9573 10.3184,5.9573926 59.999996 0 1 -6e-5,11.9147 z m 24.8346,-86.68469 a 10.3184,5.9573923 0 0 1 -10.31841,5.95739 10.3184,5.9573923 0 0 1 -10.3184,-5.95739 10.3184,5.9573923 0 0 1 10.3184,-5.95741 10.3184,5.9573923 0 0 1 10.31841,5.95741 z m -63.803991,19.18774 a 42.40751,24.484204 59.999996 0 1 42.407701,24.48387 42.40751,24.484204 59.999996 0 1 -1.9e-4,48.96808 42.40751,24.484204 59.999996 0 1 -42.407697,-24.48387 42.40751,24.484204 59.999996 0 1 1.86e-4,-48.96808 z m 106.971118,0 a 24.484204,42.40751 30.000004 0 0 -42.407707,24.48387 24.484204,42.40751 30.000004 0 0 1.9e-4,48.96809 24.484204,42.40751 30.000004 0 0 42.407697,-24.48388 24.484204,42.40751 30.000004 0 0 -1.8e-4,-48.96808 z m 14.24704,18.08806 A 67.733335,67.73333 0 0 1 67.733333,297 67.733335,67.73333 0 0 1 0,229.26668 67.733335,67.73333 0 0 1 67.733333,161.53334 67.733335,67.73333 0 0 1 135.46666,229.26668 Z m -25.32509,-37.2758 a 42.407513,24.484203 0 0 1 -42.407497,24.4842 42.407513,24.484203 0 0 1 -42.407513,-24.4842 42.407513,24.484203 0 0 1 42.407513,-24.48421 42.407513,24.484203 0 0 1 42.407497,24.48421 z"
        />
  </g>
</svg>
